<?xml version="1.0" standalone="no"?>
<!DOCTYPE svg PUBLIC "-//W3C//DTD SVG 20010904//EN"
 "http://www.w3.org/TR/2001/REC-SVG-20010904/DTD/svg10.dtd">
<svg version="1.0" xmlns="http://www.w3.org/2000/svg"
 width="500.000000pt" height="500.000000pt" viewBox="0 0 500.000000 500.000000"
 preserveAspectRatio="xMidYMid meet">
<metadata>
Created by potrace 1.14, written by Peter Selinger 2001-2017
</metadata>
<g transform="translate(0.000000,500.000000) scale(0.100000,-0.100000)"
fill="#000000" stroke="none">
<path d="M1887 4634 c-1 -1 -153 -5 -337 -9 -508 -10 -855 -20 -1370 -40 -171
-7 -180 -9 -180 -40 0 -29 8 -34 57 -40 275 -30 310 -39 347 -88 24 -32 71
-163 146 -407 23 -74 46 -144 51 -155 5 -11 11 -29 12 -40 2 -11 7 -27 10 -35
17 -46 47 -152 47 -168 0 -10 3 -21 6 -24 3 -4 23 -55 43 -115 75 -215 157
-341 284 -437 111 -83 301 -143 514 -162 31 -2 58 -6 62 -8 3 -2 48 -7 99 -11
51 -4 99 -8 106 -9 7 -1 36 -29 64 -63 44 -53 49 -62 36 -75 -8 -8 -34 -48
-57 -89 -32 -56 -53 -81 -89 -104 -26 -16 -69 -43 -95 -60 -47 -29 -48 -31
-51 -86 -3 -54 -4 -56 -40 -69 -75 -27 -143 -82 -179 -144 -7 -12 -15 -42 -19
-68 -4 -32 -12 -48 -24 -51 -34 -9 -51 -51 -53 -129 l-1 -75 -78 0 c-43 0 -80
-2 -83 -5 -2 -2 -7 -44 -10 -94 -2 -49 -7 -118 -10 -154 -2 -36 -7 -94 -10
-130 -2 -36 -7 -101 -10 -145 -4 -44 -8 -105 -10 -135 -2 -30 -7 -95 -10 -145
-4 -49 -8 -110 -10 -135 -2 -25 -7 -87 -10 -138 l-7 -94 -73 -69 -73 -70 1
-82 2 -82 1613 0 c1065 0 1616 3 1620 10 4 6 7 43 7 83 l1 73 -74 68 c-73 68
-73 68 -77 127 -3 32 -7 92 -10 132 -3 40 -8 105 -10 145 -3 40 -7 99 -10 132
-3 33 -7 97 -10 143 -3 45 -7 106 -9 135 -6 69 -15 183 -22 282 -5 75 -9 116
-12 140 -1 6 -37 10 -90 9 l-87 -2 0 69 c1 76 -14 121 -47 136 -15 7 -22 20
-24 46 -8 87 -94 182 -196 216 -21 7 -38 16 -39 19 0 4 -1 28 -2 53 -2 52 -20
73 -96 110 -66 33 -107 74 -148 148 -20 36 -42 73 -50 82 -12 14 -9 21 20 50
18 19 40 44 48 56 16 24 35 29 149 38 41 3 82 8 90 10 8 2 40 7 70 10 241 25
445 94 562 189 94 77 172 206 232 387 33 97 42 129 81 277 9 31 47 154 85 272
38 118 79 247 91 285 29 92 53 139 81 157 32 21 87 38 139 43 195 17 233 25
237 51 2 12 -3 26 -10 32 -7 6 -85 13 -178 17 -304 11 -397 15 -547 20 -170 5
-461 13 -743 21 -199 5 -1628 13 -1633 8z"/>
</g>
</svg>
