<?xml version="1.0" encoding="utf-8"?>
<!-- Generator: Adobe Illustrator 27.8.1, SVG Export Plug-In . SVG Version: 6.00 Build 0)  -->
<svg version="1.1" id="Layer_1" xmlns="http://www.w3.org/2000/svg" xmlns:xlink="http://www.w3.org/1999/xlink" x="0px" y="0px"
	 viewBox="0 0 13.58 10.86" style="enable-background:new 0 0 13.58 10.86;" xml:space="preserve">
<style type="text/css">
	.st0{fill:#939393;}
	.st1{fill:#E0E1E0;}
</style>
<g>
	<path class="st0" d="M6.96,3.1C7.14,2.93,7.32,2.76,7.5,2.58c0.31-0.32,0.58-0.65,0.61-1.11c0.03-0.48-0.02-0.94-0.4-1.31
		c-0.16-0.2-0.45-0.22-0.65-0.06C7.05,0.12,7.03,0.13,7.02,0.15c-0.3,0.27-0.59,0.56-0.89,0.83C5.17,1.79,4.12,2.47,3,3.02
		c-0.85,0.46-1.76,0.8-2.7,1.03C0.18,4.06,0.07,4.13,0,4.22v5.57c0.05,0.1,0.15,0.16,0.27,0.17c0.48,0.08,0.94,0.22,1.38,0.43
		c0.54,0.26,1.13,0.41,1.73,0.46c0.02,0,0.03,0.01,0.05,0.02h3.5c0.17-0.07,0.34-0.16,0.49-0.27c0.31-0.27,0.38-0.72,0.17-1.08
		C8.2,9.44,8.65,8.87,8.58,8.24C8.56,8.05,8.49,7.86,8.38,7.7h0.19c1.13,0,2.27,0,3.4,0c0.62,0.02,1.14-0.46,1.16-1.08
		c0-0.04,0-0.07,0-0.11c-0.02-0.25-0.11-0.49-0.28-0.68l0.16-0.08c0.27-0.15,0.46-0.41,0.54-0.71l0.03-0.11V4.58
		c0,0-0.02-0.02-0.02-0.03c-0.1-0.57-0.61-0.98-1.19-0.94c-0.68,0-1.36,0-2.03,0c-1.08,0-2.15,0-3.23,0c-0.24,0-0.73-0.01-0.73-0.01
		S6.77,3.27,6.96,3.1z"/>
	<path class="st1" d="M6.08,4.06c0.06,0.01,0.12,0.01,0.18,0c2.03,0,4.05,0,6.08,0c0.08,0,0.16,0,0.24,0.02
		c0.37,0.07,0.6,0.43,0.53,0.79c-0.07,0.34-0.38,0.57-0.72,0.55H8.13c-0.08-0.01-0.17-0.01-0.25,0C7.76,5.41,7.66,5.5,7.65,5.62
		c-0.01,0.12,0.08,0.22,0.2,0.23c0.05,0.01,0.1,0.02,0.16,0.01h2.57c0.47,0,0.95,0,1.42,0c0.37,0,0.67,0.3,0.67,0.67
		c0,0.07-0.01,0.14-0.03,0.2c-0.09,0.31-0.39,0.51-0.71,0.49H7.51c-0.16,0-0.26,0.08-0.27,0.21c0,0.13,0.1,0.24,0.24,0.24
		c0.37,0.01,0.67,0.31,0.66,0.69c0,0.01,0,0.02,0,0.03C8.12,8.75,7.8,9.04,7.43,9.02h-0.6c-0.16,0-0.26,0.08-0.27,0.21
		C6.55,9.37,6.64,9.46,6.81,9.48C6.99,9.49,7.14,9.6,7.2,9.76c0.09,0.23-0.03,0.5-0.26,0.59c-0.06,0.02-0.13,0.03-0.19,0.03
		c-1,0-2,0-3.01,0c-0.42,0-0.84-0.06-1.24-0.18c-0.08-0.02-0.15-0.05-0.23-0.08C1.68,9.89,1.1,9.6,0.46,9.51V4.5
		c2.61-0.74,4.98-2.13,6.91-4.04c0.25,0.18,0.32,0.48,0.32,0.77c0,0.55-0.31,0.86-0.68,1.21C6.67,2.77,6.31,3.07,5.96,3.38
		C5.89,3.45,5.8,3.53,5.76,3.62C5.69,3.76,5.73,4.07,5.73,4.07S6.04,4.06,6.08,4.06z"/>
</g>
</svg>
