<?xml version="1.0" encoding="utf-8"?>
<!-- Generator: Adobe Illustrator 27.8.1, SVG Export Plug-In . SVG Version: 6.00 Build 0)  -->
<svg version="1.1" id="Layer_1" xmlns="http://www.w3.org/2000/svg" xmlns:xlink="http://www.w3.org/1999/xlink" x="0px" y="0px"
	 viewBox="0 0 13.6 10.9" style="enable-background:new 0 0 13.6 10.9;" xml:space="preserve">
<style type="text/css">
	.st0{fill:#E0E1E0;}
	.st1{fill:#939393;}
</style>
<g>
	<path class="st0" d="M7,3.1c0.2-0.2,0.4-0.3,0.5-0.5c0.3-0.3,0.6-0.6,0.6-1.1c0-0.5,0-0.9-0.4-1.3C7.5,0,7.3-0.1,7.1,0.1
		c0,0,0,0,0,0.1C6.7,0.4,6.4,0.7,6.1,1c-1,0.8-2,1.5-3.1,2c-0.8,0.5-1.8,0.8-2.7,1C0.2,4.1,0.1,4.1,0,4.2v5.6
		C0.1,9.9,0.2,9.9,0.3,10c0.5,0.1,0.9,0.2,1.4,0.4c0.5,0.3,1.1,0.4,1.7,0.5c0,0,0,0,0,0h3.5c0.2-0.1,0.3-0.2,0.5-0.3
		c0.3-0.3,0.4-0.7,0.2-1.1c0.6-0.1,1.1-0.7,1-1.3c0-0.2-0.1-0.4-0.2-0.5h0.2c1.1,0,2.3,0,3.4,0c0.6,0,1.1-0.5,1.2-1.1
		c0,0,0-0.1,0-0.1c0-0.2-0.1-0.5-0.3-0.7L13,5.8c0.3-0.2,0.5-0.4,0.5-0.7l0-0.1V4.6c0,0,0,0,0,0c-0.1-0.6-0.6-1-1.2-0.9
		c-0.7,0-1.4,0-2,0c-1.1,0-2.2,0-3.2,0c-0.2,0-0.7,0-0.7,0S6.8,3.3,7,3.1z"/>
	<path class="st1" d="M6.1,4.1c0.1,0,0.1,0,0.2,0c2,0,4,0,6.1,0c0.1,0,0.2,0,0.2,0c0.4,0.1,0.6,0.4,0.5,0.8
		c-0.1,0.3-0.4,0.6-0.7,0.6H8.1c-0.1,0-0.2,0-0.2,0c-0.1,0-0.2,0.1-0.2,0.2c0,0.1,0.1,0.2,0.2,0.2c0.1,0,0.1,0,0.2,0h2.6
		c0.5,0,0.9,0,1.4,0c0.4,0,0.7,0.3,0.7,0.7c0,0.1,0,0.1,0,0.2c-0.1,0.3-0.4,0.5-0.7,0.5H7.5c-0.2,0-0.3,0.1-0.3,0.2
		c0,0.1,0.1,0.2,0.2,0.2c0.4,0,0.7,0.3,0.7,0.7c0,0,0,0,0,0C8.1,8.8,7.8,9,7.4,9H6.8C6.7,9,6.6,9.1,6.6,9.2c0,0.1,0.1,0.2,0.2,0.2
		c0.2,0,0.3,0.1,0.4,0.3c0.1,0.2,0,0.5-0.3,0.6c-0.1,0-0.1,0-0.2,0c-1,0-2,0-3,0c-0.4,0-0.8-0.1-1.2-0.2c-0.1,0-0.2-0.1-0.2-0.1
		C1.7,9.9,1.1,9.6,0.5,9.5v-5c2.6-0.7,5-2.1,6.9-4c0.2,0.2,0.3,0.5,0.3,0.8c0,0.5-0.3,0.9-0.7,1.2C6.7,2.8,6.3,3.1,6,3.4
		C5.9,3.5,5.8,3.5,5.8,3.6c-0.1,0.1,0,0.5,0,0.5S6,4.1,6.1,4.1z"/>
</g>
</svg>
