<svg width="450" height="100" viewBox="0 0 450 100" fill="none" xmlns="http://www.w3.org/2000/svg">
<g clip-path="url(#clip0_4302_1982)">
<path d="M80.9565 54.5475C81.0245 54.7289 81.0018 54.6836 80.9565 54.5475Z" fill="white"/>
<path d="M231.395 52.2795C231.009 52.597 230.352 52.5516 229.717 52.3248C229.377 53.2774 232.234 55.0012 233.277 54.162C244.411 44.9762 254.865 34.7925 266.816 26.6501C268.902 24.2005 270.898 21.9098 272.667 19.9365C257.337 28.5779 244.865 41.1658 231.395 52.2568" fill="white"/>
<path d="M39.6392 56.8837C45.6032 54.4341 51.7713 51.4856 55.8078 46.269C57.5766 44.0236 58.529 40.8937 57.5086 38.1493C57.4405 37.9678 57.3725 37.7864 57.2818 37.6049C57.1684 37.4235 57.055 37.2874 56.919 37.1059C53.8349 32.9553 48.007 32.5698 43.2221 32.5471C35.7388 32.3203 28.5729 35.4049 21.1122 34.9059C20.9308 34.9059 20.7267 34.9059 20.5453 34.8605C19.5928 34.4296 19.23 33.8399 19.23 33.1595C19.2073 31.6625 20.8627 29.78 21.7925 28.6913C29.8881 20.753 40.4102 15.6725 51.3631 12.8374C52.9278 12.4291 54.4925 12.0889 56.0799 11.7714C61.2049 11.091 67.237 9.93425 71.7043 13.291C71.7497 13.5632 71.7496 13.8127 71.727 14.0622V14.1302C71.3868 18.1447 64.0849 18.7344 64.9012 23.2479C65.4908 23.815 66.1031 24.1552 66.7154 24.3366C69.7541 25.1985 72.8608 21.819 74.4255 19.3015C76.1943 15.922 83.587 13.7673 83.4963 10.9095C83.4963 10.3425 83.1788 9.77549 82.4985 9.14042C81.7275 8.43732 78.5981 10.3198 76.8066 11.8848L76.7386 11.9529L76.4891 12.1797C76.1036 11.7034 75.7408 11.159 75.3553 10.66C74.5389 9.59404 73.6545 8.61876 72.3166 8.23319C65.3774 5.85169 57.9168 7.73421 51.0457 9.43527C50.2746 9.66208 49.5036 9.91157 48.7553 10.1384C37.2354 13.7673 25.3981 18.4849 17.5746 28.079C15.8058 30.5512 13.6968 34.1574 15.8511 37.0379C16.282 37.5822 16.7809 37.9905 17.3478 38.308C19.298 39.4194 21.9285 39.3967 24.1282 39.1245C32.7227 37.8544 41.476 34.3616 50.2293 36.6296C51.5219 36.8111 52.497 37.673 53.0185 38.7617C53.6081 40.0091 53.5628 41.5741 52.6557 42.7308C47.5761 50.7825 37.9611 54.0712 29.1851 56.294C26.668 56.8156 24.0828 57.2919 21.475 57.6095C16.3047 58.2218 11.0436 58.1311 6.21347 56.1579C5.66922 55.9311 5.14765 55.7043 4.62608 55.4321C3.94578 53.5723 4.28593 51.6898 5.53316 50.3516C5.94134 49.898 6.46291 49.5351 7.05251 49.2402C8.39045 48.0835 11.1343 47.4938 11.6559 45.9288C11.7693 45.5659 11.792 45.135 11.6332 44.6587C11.5879 44.4772 11.4972 44.2958 11.4065 44.1143C5.35174 43.2752 -1.99556 49.8753 0.5896 56.1806C1.11117 57.3373 1.92754 58.1992 2.90264 58.8569C4.42199 59.9002 6.34953 60.4673 8.09565 60.8755C18.7538 62.8034 29.6614 60.4446 39.6845 56.861" fill="white"/>
<path d="M80.9565 54.5475C81.0018 54.729 80.9792 54.6836 80.9565 54.5475ZM85.6279 51.0774C86.535 48.3783 88.2584 46.0876 90.186 44.0236C90.0272 45.5432 89.6871 47.0855 89.8231 48.6051C89.8685 49.1495 89.9819 49.6938 90.2086 50.2155C90.6622 51.8939 92.0681 53.0279 93.2927 54.1846L93.4968 54.3888H93.4741C91.5919 55.0692 89.3923 56.1352 87.3967 55.5001C87.1926 55.4321 86.9885 55.3641 86.7844 55.2733C85.1744 54.5249 85.2651 52.5289 85.6506 51.0774M97.8961 39.9411C99.4608 38.8751 101.728 37.9225 103.475 39.1245C103.588 39.5782 103.633 40.0091 103.679 40.44C103.951 44.7721 100.164 48.4237 97.1931 51.2134C96.921 51.0774 96.6489 50.964 96.3541 50.8279C95.6511 50.5103 94.9481 50.1474 94.6306 49.399C93.27 45.9742 95.1068 42.0504 97.8961 39.9411ZM112.296 51.0774C113.203 48.3783 114.926 46.0876 116.854 44.0236C116.695 45.5432 116.355 47.0855 116.491 48.6051C116.536 49.1495 116.65 49.6938 116.877 50.2155C117.33 51.8939 118.759 53.0279 119.961 54.2073L120.165 54.4115H120.142C118.237 55.0919 116.06 56.1579 114.065 55.5228C113.861 55.4548 113.657 55.3867 113.452 55.296C111.842 54.5475 111.933 52.5516 112.319 51.1M124.564 39.9637C126.129 38.8977 128.397 37.9451 130.143 39.1472C130.256 39.6008 130.301 40.0318 130.347 40.4627C130.619 44.7948 126.832 48.4464 123.861 51.2361C123.589 51.1 123.317 50.9866 123.022 50.8506C122.319 50.533 121.616 50.1701 121.299 49.4217C119.938 45.9968 121.775 42.0731 124.564 39.9637ZM166.63 39.7596C165.088 43.3659 161.323 45.3391 157.967 46.9494C159.985 43.7514 162.956 40.871 166.63 39.7596ZM54.9688 59.9002C56.4881 57.8363 57.5313 55.3641 59.5949 53.731C63.4272 50.4423 67.6678 47.3804 72.5207 45.8381C71.8404 46.9948 71.0694 48.1742 70.389 49.399C69.2552 51.4403 68.3708 53.5949 68.5522 55.9991C68.6429 57.0878 69.482 57.7002 70.4344 57.9724C71.0467 58.1538 71.7043 58.1765 72.2486 58.1311C72.6341 58.0858 73.0196 58.0177 73.4278 57.9497C76.1263 57.4053 78.5754 55.9991 80.9338 54.6383C81.0018 54.8878 81.0699 55.1146 81.1606 55.3414C81.2059 55.5909 81.2513 55.8403 81.2966 56.1125C81.2739 55.9311 81.2513 55.7496 81.2513 55.5682C81.4554 56.0672 81.7048 56.5435 81.9769 56.9971C82.4758 57.7909 83.1334 58.4713 83.9271 58.9703C84.4034 59.2878 84.9249 59.5147 85.5145 59.6734C85.832 59.7641 86.1268 59.8322 86.4443 59.8775C91.0704 60.6714 95.5604 58.1084 99.1206 55.3414C99.8236 55.2506 100.504 55.1372 101.207 55.0012C103.271 54.5929 105.289 53.9578 107.239 53.096C107.239 53.2547 107.284 53.4135 107.33 53.5723C107.919 55.6362 107.511 54.3434 107.488 54.3207C107.579 54.7063 107.715 55.0919 107.874 55.4775C108.418 56.8837 109.325 58.1311 110.572 58.9476C111.049 59.2652 111.593 59.5147 112.183 59.6507C117.126 61.0116 122.002 58.2672 125.789 55.3187C128.17 55.0012 131.526 54.3661 135.562 52.5063L135.426 52.7104C134.927 53.7764 134.655 54.729 134.587 55.5682C134.406 57.6095 135.358 58.9703 136.764 59.6054C137.15 59.7868 137.581 59.9002 138.011 59.9683C138.442 60.0136 138.873 59.991 139.327 59.9683C139.826 59.991 140.347 59.9683 140.801 59.9229C144.679 59.3559 147.808 56.7476 150.824 54.4341C151.119 55.2733 151.323 56.2259 151.686 57.1105C152.094 58.1311 152.661 59.0384 153.749 59.492H153.795C153.976 59.6054 154.157 59.6734 154.362 59.7415C157.4 60.8075 160.688 59.4239 163.478 58.1311C163.478 58.1311 169.306 55.0238 174.725 50.0567C176.812 48.2423 178.762 46.269 180.871 44.4999C181.03 45.1577 181.324 46.4958 181.483 47.1536C180.599 48.0154 179.714 48.9227 178.875 49.8526C176.676 52.3021 174.793 55.0238 174.113 58.2672C174.068 58.426 174.045 58.5847 174.022 58.7435C173.841 60.3765 174.793 61.8961 176.199 62.4858C176.834 62.758 177.537 62.8261 178.308 62.6219C182.095 61.9642 185.225 60.5353 188.468 58.0631C188.921 57.7002 189.397 57.3373 189.874 56.9517C190.259 56.6342 190.599 56.3166 190.894 55.9991C191.325 55.5455 191.665 55.1146 191.914 54.729C192.164 54.3434 192.3 54.0032 192.323 53.7537C192.391 52.8918 192.141 52.2568 191.801 51.9619C191.461 51.6671 190.327 52.597 190.327 52.597C186.926 55.4775 185.157 56.9971 181.37 57.7909C180.667 57.9497 179.873 58.0631 179.011 58.1765C178.853 57.36 179.011 56.6342 179.465 55.9764C181.234 53.1867 183.932 51.1681 185.973 48.5825C187.56 46.2917 185.565 43.6834 184.703 41.506C186.427 39.4421 188.49 37.6049 189.783 35.2007C190.01 34.8605 190.1 34.475 190.123 34.0667C190.123 33.9079 190.123 33.7492 190.078 33.5904C189.896 32.6151 189.103 31.7306 188.014 31.6852C185.588 31.4584 183.637 33.3182 182.05 34.9059C179.873 36.9472 179.896 40.2813 177.696 42.2999C175.27 45.1803 172.163 47.4031 169.351 49.898C166.834 51.8485 164.203 53.5496 161.233 54.9331C160.167 55.3867 158.942 55.863 157.763 55.7269C157.491 55.7043 157.219 55.6362 156.969 55.5455C155.518 55.1599 155.541 52.597 156.924 52.1434C161.255 50.0794 165.655 47.6299 168.761 43.9102C169.215 43.3885 169.623 42.8215 170.009 42.2318C170.757 41.0524 171.528 39.4874 171.188 38.1039C171.097 37.741 170.938 37.4008 170.666 37.0833C169.51 35.9265 167.832 35.8358 166.267 36.0626C165.745 36.1533 165.224 36.2667 164.748 36.4028C159.781 37.9905 156.062 42.0957 153.5 46.4731C152.888 47.6299 152.048 48.6051 151.096 49.467C150.779 49.7619 150.461 50.034 150.121 50.3062C147.558 51.8485 144.837 54.4568 141.844 55.1826C141.005 55.3867 140.166 55.4548 139.281 55.296C140.12 51.8485 142.502 49.1495 144.678 46.4505C148.42 41.8916 152.411 37.5596 156.584 33.3863C159.305 29.9388 163.954 32.0254 167.764 31.3904C168.308 31.2996 168.829 31.1636 169.351 30.9367C170.054 30.4604 171.21 30.0975 171.483 29.281C171.551 29.0542 171.573 28.7821 171.483 28.4418C170.167 27.2624 168.557 27.0583 166.902 27.0583C165.609 27.0583 164.271 27.1717 163.047 27.0583C164.929 24.9944 167.469 23.5201 168.988 21.1159V20.8437C168.875 19.3695 167.219 18.7117 165.813 18.9159C165.133 19.0293 164.498 19.3468 164.113 19.8685C162.049 22.4768 159.759 24.9944 157.015 26.8769C156.788 26.9222 156.539 26.9676 156.312 26.9903C154.656 27.2171 152.956 26.9903 151.345 27.4892C150.869 27.7161 150.461 28.147 150.121 28.646C149.418 29.7347 149.214 31.1409 149.962 31.4357C150.348 31.4357 150.983 31.4357 151.572 31.4357C152.003 31.4357 152.411 31.4357 152.706 31.4357C152.298 31.8667 151.867 32.343 151.436 32.7966C147.989 36.5389 144.044 41.1431 140.891 45.0216C138.76 47.0175 136.787 48.1969 134.973 49.0361C133.476 49.7165 132.07 50.1701 130.732 50.6464C133.204 47.3577 135.653 43.5246 135.041 39.2153C134.973 38.4668 134.723 37.741 134.338 37.1286C133.34 35.4729 131.458 34.3842 129.508 34.4296C125.834 34.1801 122.455 36.0173 119.779 38.3761C114.949 38.8297 112.046 42.9576 109.484 46.6773C109.235 47.0402 109.008 47.3804 108.758 47.7433C108.758 47.7433 108.554 48.1288 108.305 48.6959C106.944 49.467 105.538 50.1474 104.087 50.6691C104.246 50.465 104.404 50.2609 104.54 50.0567C106.853 46.9268 108.962 43.2751 108.373 39.2379C108.305 38.4895 108.055 37.7637 107.67 37.1286C107.103 36.1987 106.264 35.4276 105.266 34.9513C105.107 34.8832 104.971 34.8152 104.813 34.7471C104.495 34.6337 104.178 34.543 103.837 34.475C103.497 34.4069 103.18 34.3842 102.84 34.3842C99.166 34.1347 95.7872 35.9719 93.1113 38.3307C91.4559 38.4895 90.0272 39.0792 88.7573 39.9184C85.9681 41.8009 83.9725 44.9535 82.0903 47.6752C82.0903 47.6752 81.5234 48.7639 81.0699 50.1021C79.6412 51.0774 78.1445 51.9619 76.5572 52.6423C75.6728 53.0279 74.7657 53.3455 73.8133 53.5723C74.5389 48.9 78.4393 45.7247 80.9565 41.9823C81.0245 41.8689 81.0699 41.7328 81.0925 41.6194C81.2286 41.1885 81.2059 40.7349 81.0925 40.3266C80.6843 38.9885 79.1423 37.9451 77.7137 38.4668C76.0129 38.9204 74.4029 39.6235 72.8381 40.4173C70.5024 41.6194 68.2574 43.0483 65.9671 44.3185C71.2508 38.0359 73.4731 35.8131 79.097 29.8254C83.3602 25.5614 86.8525 21.5922 86.8525 21.5922C88.2357 20.4809 90.2086 19.0066 90.3901 17.5323C90.3447 17.2602 90.322 17.0334 90.322 16.7839C90.2767 16.2849 90.2313 15.8086 89.8912 15.0601C88.4172 14.2436 86.4216 15.7632 85.2651 17.1468C74.2895 27.8748 72.2485 30.8233 62.0893 42.3452C61.1596 43.4339 60.1845 44.5226 59.2093 45.6113C57.5993 47.4484 56.0346 49.3083 54.742 51.3269C54.1524 52.2568 53.6082 53.1867 53.1546 54.1846C52.8598 54.8197 52.5877 55.5001 52.3609 56.1806C52.2702 56.4074 52.2249 56.6342 52.1795 56.861C51.9981 58.2445 52.7691 59.7868 54.1297 59.9456C54.4018 59.9683 54.674 59.9456 54.9688 59.8775" fill="white"/>
<path d="M208.967 52.2794C225.317 38.24 241.577 23.8149 259.628 11.9528C260.829 11.159 262.031 10.3878 263.256 9.6167C261.102 12.2023 258.879 14.6972 256.612 17.1467C250.239 24.0191 243.527 30.6192 237.472 37.7863C234.071 41.8462 229.671 45.4071 227.857 50.4423C227.653 51.032 228.674 51.9392 229.739 52.3248C230.374 52.5516 231.032 52.597 231.418 52.2794C244.888 41.1885 257.36 28.5779 272.689 19.9592C270.921 21.9324 268.925 24.2005 266.839 26.65C260.104 34.5657 252.416 44.3638 248.811 52.2341C247.337 55.5908 246.316 59.8775 248.607 63.0755C249.06 63.5518 249.536 63.9374 250.058 64.2549C253.278 66.2735 257.632 65.4117 261.034 64.0508C263.528 63.0075 266.385 61.624 267.927 59.3785C268.653 58.3352 269.107 57.1105 269.107 55.6362C264.163 58.6981 257.36 62.8941 253.482 61.5559C253.301 61.4879 253.142 61.4198 252.983 61.3518C250.262 59.9682 251.849 56.0218 252.756 53.6176C257.904 42.5493 270.104 28.0563 278.427 19.3695C279.311 18.4396 279.447 17.4643 279.13 16.6251C278.449 14.8106 275.705 13.6312 273.801 15.0374C267.701 18.3715 262.099 22.4541 256.589 26.6727C252.915 29.4851 249.287 32.3656 245.568 35.1327C244.956 35.5863 244.343 36.0399 243.708 36.4935C251.146 27.9882 259.355 20.2313 267.247 12.1343C268.517 10.8415 269.719 9.36721 269.946 7.48469V7.41665C267.995 3.99184 263.347 4.74031 260.58 6.69086C252.507 11.7714 245.001 17.6457 237.608 23.6562C232.914 27.4665 228.243 31.345 223.481 35.0873C228.923 28.6006 235.159 22.8396 240.556 16.3076C243.55 12.6559 247.359 8.89091 247.518 3.87843C247.427 3.47018 247.291 3.10728 247.133 2.76707C246.384 1.24745 244.797 0.498983 243.096 0.181451C242.166 3.6398e-06 241.191 -0.0453581 240.284 3.64613e-06C237.132 0.0907272 234.003 0.453621 230.919 1.04332C221.666 2.78975 212.823 6.55478 204.591 11.0456C201.189 13.1322 196.835 15.2869 194.023 18.3715C192.753 19.7777 191.801 21.3654 191.393 23.2252C191.348 23.452 191.302 23.6788 191.279 23.883C191.007 26.2871 192.255 27.9428 193.865 29.0315C194.432 29.3944 195.021 29.6893 195.633 29.9388C198.309 30.9594 204.908 32.6832 204.523 29.5305C204.5 29.3264 204.455 29.1223 204.364 28.8728C203.797 27.2397 199.761 27.2624 197.312 26.4913C196.223 26.1511 195.452 25.6521 195.429 24.7675C195.429 24.5634 195.429 24.3819 195.452 24.2005C195.792 21.3881 198.944 19.3468 201.393 17.6684C207.698 13.0415 214.909 9.79814 222.301 7.30325C223.367 6.94035 224.41 6.60014 225.476 6.25993C230.851 4.83103 236.543 3.12996 242.121 4.21865C242.484 4.28669 242.869 4.37741 243.232 4.46814C243.776 4.6269 243.708 5.21661 243.346 5.98776C242.756 7.25789 241.35 9.00431 240.556 10.025C229.173 25.0397 214.637 37.31 202.641 51.8031C202.641 51.8031 203.91 52.3702 205.384 52.6423C206.677 52.8918 208.106 52.9599 208.99 52.2341" fill="white"/>
<path d="M288.881 26.5593L288.835 26.2418C288.699 25.9696 288.541 25.7428 288.359 25.5387C287.089 24.1325 284.708 24.3366 283.007 24.7902C277.588 26.3552 272.916 29.9614 269.424 34.2935C267.723 36.743 266.045 39.7823 266.839 42.8669C267.179 43.9555 267.927 44.6586 268.857 45.1123C270.195 45.7473 271.918 45.7927 273.302 45.5205C273.574 45.4752 273.823 45.4071 274.073 45.3618C277.769 44.5452 278.88 43.8421 282.373 41.6648C282.735 41.4606 282.939 41.1431 283.076 40.8029C283.28 40.2586 283.302 39.6008 283.348 39.1472C283.416 38.3987 282.531 37.9451 281.42 38.7843C280.309 39.6008 279.266 39.941 279.266 39.941C277.225 40.6895 275.093 41.8689 272.871 41.8689C272.463 41.8689 272.055 41.8462 271.624 41.7555C270.172 40.44 271.51 38.4441 272.236 37.1059C275.252 32.7739 279.606 29.0996 284.708 27.5799C285.343 28.2604 285.184 29.1676 284.754 30.0975C284.595 30.4604 284.391 30.8233 284.164 31.1862C284.051 31.3677 283.937 31.5718 283.824 31.7532C284.323 32.8873 285.661 32.5471 286.59 32.0254L286.772 31.912C288.541 30.8233 289.13 28.5099 288.835 26.5366" fill="white"/>
<path d="M412.787 32.4563C412.674 32.2295 412.56 32.0027 412.47 31.7532C412.198 31.0955 411.903 30.4377 411.291 30.0975C411.177 30.0295 411.041 29.9841 410.882 29.9387C408.229 29.0542 405.735 31.2996 404.465 33.4089C403.648 34.5656 404.714 36.176 406.075 36.0853H406.143C408.66 35.5863 413.354 33.9986 412.787 32.4336" fill="white"/>
<path d="M323.486 55.5909C319.29 60.2178 314.46 64.4364 308.632 66.4323C307.476 66.8179 306.297 67.1354 305.072 67.3395C309.381 58.5847 319.268 54.9104 327.5 50.8732C326.23 52.4382 324.892 54.0259 323.486 55.5682M433.99 58.6981C438.639 57.2012 442.562 54.1166 446.372 51.1454C447.619 50.1021 449.002 49.1722 450 47.834V47.6072C450.023 46.269 448.481 45.203 447.279 45.9968C443.9 48.0154 441.043 51.1454 437.573 53.0052C437.233 53.1867 436.893 53.3454 436.553 53.5042C435.691 53.8898 434.784 54.162 433.831 54.3434C433.922 53.7764 434.058 53.232 434.24 52.7104C435.487 49.0588 438.526 46.2917 440.476 43.0256C440.725 42.4359 440.725 41.9143 440.612 41.438C440.181 39.7369 437.754 38.875 436.031 39.4647C431.609 40.8029 427.867 43.4793 424.171 46.201C422.584 47.3804 420.974 48.5598 419.341 49.6258C419.454 49.399 419.59 49.1948 419.704 48.9907C420.611 47.5165 421.767 46.1329 422.266 44.4545L422.312 44.1597C422.38 42.6174 420.361 41.7102 419.159 42.6854C413.762 46.1102 409 51.6444 402.991 53.9805C402.243 54.2527 401.471 54.5022 400.655 54.6836C399.907 54.8651 399.113 55.0238 398.297 55.1599C398.569 50.6918 402.106 48.4237 404.828 45.3164C405.054 45.0896 405.168 44.8401 405.259 44.5679C405.417 44.0009 405.372 43.3659 405.485 42.7988C405.259 42.7308 405.032 42.7081 404.805 42.6627H404.624C404.442 42.6174 404.261 42.6174 404.079 42.6174H403.989C403.785 42.6174 403.58 42.6401 403.399 42.6854H403.24C403.082 42.7535 402.923 42.7762 402.764 42.8215H402.651C402.469 42.9122 402.288 42.9803 402.106 43.071L401.97 43.139C401.834 43.2071 401.698 43.2751 401.562 43.3659L401.449 43.4339C401.29 43.5246 401.131 43.638 400.95 43.7514L400.859 43.8195C400.723 43.9102 400.587 44.0236 400.474 44.137L400.36 44.2504C400.202 44.3865 400.066 44.5226 399.907 44.6587L399.839 44.7267C399.703 44.8628 399.567 44.9762 399.453 45.1123L399.34 45.2257C399.204 45.3618 399.068 45.5205 398.932 45.6566V45.6793C398.75 45.8834 398.569 46.0649 398.387 46.269C398.183 46.5185 397.911 46.836 397.616 47.1762C396.46 47.9701 395.031 48.4237 393.784 48.1742C393.217 48.0608 392.673 47.7886 392.242 47.3123C392.038 47.1082 391.856 46.8587 391.698 46.5639C392.673 45.2711 393.739 43.9556 394.714 42.6174C396.347 40.372 397.798 38.0132 398.342 35.2688C398.387 35.0873 398.433 34.9286 398.433 34.7698C398.501 33.3636 396.868 32.4337 395.576 33.1141C390.451 34.9739 388.342 40.5307 386.958 45.3618C384.146 48.5371 380.768 51.3268 376.98 53.3454C376.187 53.7764 375.37 54.1846 374.531 54.5249C374.577 52.2794 375.461 50.2382 376.618 48.3556C378.069 45.0442 382.173 43.1617 382.808 39.5101V39.2379C382.854 39.0792 382.876 38.9204 382.899 38.739C382.944 38.0358 382.627 37.6503 382.151 37.4688C381.357 37.174 380.133 37.4461 379.43 37.7637C375.756 39.6916 373.896 43.4566 372.082 47.0175C369.089 49.0814 366.186 51.4176 362.762 52.4155C362.014 52.6197 361.265 52.7784 360.472 52.8465C360.54 49.7392 362.535 47.2216 364.281 44.7948L364.44 44.5679L364.622 44.2958C364.032 42.3906 361.878 42.3225 360.426 43.3205C355.415 46.5639 350.585 50.3742 345.119 52.8465C344.915 52.9372 344.711 53.0506 344.507 53.1413C343.691 53.5042 342.852 53.8217 342.013 54.0939C342.081 53.7764 342.149 53.4588 342.239 53.1413C342.512 52.1887 342.942 51.3042 343.577 50.533C347.931 44.7721 354.372 40.7802 361.197 38.6256C362.309 38.2173 363.51 38.3761 364.576 38.8524C364.486 39.1926 364.327 39.7596 364.191 40.2813C364.077 40.6668 363.987 41.0524 363.896 41.3246C364.531 41.7555 365.234 42.2545 366.005 42.4133C366.436 42.504 366.867 42.4813 367.32 42.2772C368.794 41.8009 369.27 40.3039 369.452 38.875C369.52 38.3987 369.542 37.9224 369.565 37.4915C369.52 37.2193 369.452 36.9472 369.338 36.6977C368.522 34.7244 365.891 34.0213 363.873 34.2028C357.206 34.7925 351.083 38.1266 345.89 42.1865C345.709 42.1865 345.528 42.2091 345.346 42.2318C343.577 42.4133 341.242 42.8215 339.223 43.2071C337.976 43.4339 336.865 43.6607 336.117 43.7968C337.273 41.3473 339.745 37.0152 340.675 34.3615C341.06 33.2275 341.174 32.411 340.788 32.1615C340.697 32.1161 340.584 32.0708 340.425 32.0935C339.246 32.1842 338.294 32.6378 337.387 33.2275C336.593 33.7265 335.845 34.3389 335.051 34.8605C324.96 41.5967 313.984 47.2443 302.283 50.6011C298.836 51.2815 294.369 52.3702 291.148 50.6011C290.491 50.2382 289.901 49.7845 289.357 49.1495C288.064 44.3865 291.375 39.9637 293.938 36.2441C303.893 23.9283 318.111 15.4457 333.146 10.8188C339.36 9.32186 346.344 7.75688 352.444 10.3652C352.852 10.5466 353.26 10.7281 353.646 10.9549C354.031 11.2497 354.236 11.7033 354.258 12.225C354.394 14.6292 351.333 18.9839 348.906 21.0252C342.92 26.0377 335.028 28.2831 327.295 28.5099C324.982 28.3284 323.894 30.279 324.824 32.2749C325.345 32.3429 325.867 32.3656 326.388 32.3883C333.509 32.7512 340.448 30.1429 346.593 26.7181C351.242 24.1098 355.664 20.3674 357.365 15.1282C358.045 13.1549 357.682 10.8868 356.549 9.16309C355.732 7.91564 354.53 6.94036 353.034 6.55479C352.807 6.48675 352.557 6.44138 352.308 6.4187C338.589 3.90112 325.005 9.32186 313.213 15.8313C303.53 21.5469 293.598 28.0336 287.838 37.9905C285.593 41.6875 283.915 46.269 285.479 50.5557C286.069 51.6217 286.863 52.4609 287.77 53.096C290.445 54.9558 294.233 55.1599 297.475 54.7743C297.77 54.729 298.065 54.7063 298.337 54.6609C311.286 52.665 323.1 46.4958 334.235 39.873C333.509 41.3019 332.783 42.7081 332.035 44.137C331.785 44.5906 331.559 45.0442 331.309 45.4979C327.137 47.267 322.76 49.0361 318.588 51.1227C311.603 54.6156 305.14 58.993 301.013 65.7065C299.494 67.7251 300.491 69.8571 302.328 70.6283C303.031 70.9231 303.848 71.0365 304.687 70.8324C316.365 69.6757 324.937 60.1724 331.921 51.5537C333.736 48.4464 337.069 47.8113 340.425 47.2443C339.677 48.1062 339.019 49.0134 338.43 49.9887C338.044 50.6237 337.681 51.3042 337.409 52.0073C336.706 53.7991 336.185 56.1352 337.568 57.7455C337.931 58.0631 338.362 58.3126 338.793 58.4713C340.108 58.993 341.673 58.8796 342.988 58.3579C347.75 56.6342 351.764 53.3908 356.072 50.8052C356.05 50.9413 356.004 51.1 355.982 51.2361C355.8 52.1207 355.619 53.164 355.642 54.1393C355.664 55.5682 356.14 56.8383 357.705 57.3146L357.818 57.36C361.537 57.5868 364.984 55.8403 368.091 53.8898C368.545 53.6176 368.976 53.3228 369.406 53.0506C369.497 52.8011 369.724 52.4609 369.996 52.03C369.792 52.8691 369.633 53.7537 369.656 54.5702V54.8651C369.724 55.2053 369.701 55.5682 369.701 55.9537C369.701 57.2239 369.656 58.562 370.858 59.1971C371.107 59.3332 371.379 59.4466 371.651 59.492C372.49 59.6734 373.397 59.492 374.259 59.2425C374.645 59.1291 375.008 58.993 375.348 58.8569C380.269 56.7929 384.486 53.4135 388.364 49.8299C389.725 51.8712 391.993 52.6197 394.328 52.6197C394.124 53.1413 393.988 53.6857 393.875 54.2073C393.739 54.9331 393.693 55.6589 393.807 56.362C393.852 56.5434 393.875 56.7249 393.92 56.9063V57.0197C394.033 57.3826 394.17 57.7002 394.306 58.0404L394.351 58.1538C394.51 58.4713 394.691 58.7435 394.918 58.993L395.009 59.0837C395.122 59.1971 395.258 59.3105 395.394 59.4012C395.53 59.492 395.689 59.56 395.848 59.6281L395.984 59.6734L396.12 59.7188C396.256 59.7641 396.392 59.7868 396.551 59.8095C400.179 60.2631 405.213 57.1558 408.32 55.3187L408.479 55.228L408.592 55.1599C410.452 54.0486 412.243 52.7784 413.898 51.3949C412.651 53.164 411.585 55.0692 410.565 56.9744C410.429 57.2012 410.315 57.4507 410.179 57.6775C410.61 58.4713 411.041 59.3786 411.835 59.7188C411.948 59.7641 412.062 59.7868 412.198 59.8322C412.379 59.8775 412.56 59.8775 412.765 59.8775C415.214 58.7208 416.869 56.4527 419.046 54.8877C423.922 51.1 428.865 47.2896 434.33 44.3638C433.355 45.8834 432.289 47.4484 431.405 49.1041C430.112 51.531 429.183 54.1166 429.387 56.9063C429.523 58.0631 430.316 58.6301 431.269 58.8342C432.176 59.0383 433.264 58.9023 434.081 58.6528" fill="white"/>
<path d="M97.1931 83.579C97.0344 83.579 96.921 83.6244 96.8303 83.7151C96.7396 83.8059 96.7169 83.9193 96.7169 84.0553V99.2969C96.7169 99.6144 96.8756 99.7732 97.1931 99.7732H100.391C100.753 99.7732 100.935 99.6144 100.935 99.2969V84.0553C100.935 83.9193 100.867 83.8059 100.753 83.7151C100.64 83.6244 100.504 83.579 100.413 83.579H97.2158H97.1931Z" fill="white"/>
<path d="M123.838 83.579C123.725 83.579 123.612 83.6244 123.521 83.6925C123.43 83.7605 123.385 83.8739 123.34 83.9873V92.7194C122.41 91.2225 121.48 89.7709 120.573 88.3193C119.666 86.8678 118.736 85.3935 117.829 83.9193C117.761 83.8059 117.648 83.7151 117.557 83.6471C117.444 83.6017 117.33 83.579 117.239 83.579H113.679C113.52 83.579 113.407 83.6244 113.316 83.7151C113.248 83.8059 113.203 83.9193 113.203 84.0553V99.2969C113.203 99.433 113.248 99.5464 113.316 99.6371C113.384 99.7278 113.52 99.7732 113.679 99.7732H116.786C116.967 99.7732 117.103 99.7278 117.171 99.6598C117.239 99.5917 117.285 99.4557 117.285 99.2969V89.9297C118.26 91.5174 119.212 93.105 120.165 94.67C121.117 96.235 122.07 97.8226 123.022 99.4103C123.113 99.5237 123.181 99.6144 123.249 99.6825L123.498 99.7732H126.968C127.127 99.7732 127.24 99.7278 127.331 99.6598C127.421 99.5917 127.467 99.4783 127.467 99.3423V84.0553C127.467 83.8966 127.421 83.7832 127.308 83.6925C127.217 83.6017 127.081 83.579 126.922 83.579H123.816H123.838Z" fill="white"/>
<path d="M149.917 83.579C149.622 83.579 149.418 83.7151 149.327 83.9873C149.032 84.8265 148.738 85.643 148.466 86.4595C148.193 87.276 147.921 88.1152 147.649 88.9317C147.377 89.7709 147.105 90.5874 146.833 91.404C146.561 92.2205 146.266 93.0597 145.971 93.8762L142.66 83.9646C142.547 83.6925 142.365 83.5564 142.093 83.5564H138.578C138.306 83.5564 138.17 83.6698 138.17 83.8512V83.9419L138.193 84.0327L143.794 98.6845C143.839 98.8206 143.907 98.9794 143.976 99.1155C144.044 99.2515 144.112 99.3876 144.18 99.5237C144.248 99.6825 144.406 99.7505 144.633 99.7505H147.332C147.332 99.7505 147.536 99.7052 147.626 99.6371L147.853 99.3649C147.853 99.3649 147.967 99.1381 148.035 99.0247C148.08 98.9113 148.125 98.7979 148.171 98.6845L153.795 84.0327V83.8739L153.681 83.6244C153.681 83.6244 153.5 83.5337 153.318 83.5337H149.894L149.917 83.579Z" fill="white"/>
<path d="M168.557 83.7151C168.444 83.6244 168.308 83.579 168.217 83.579H165.02C164.861 83.579 164.748 83.6244 164.657 83.7151C164.566 83.8059 164.543 83.9193 164.543 84.0553V99.2969C164.543 99.6144 164.702 99.7732 165.02 99.7732H168.217C168.58 99.7732 168.761 99.6144 168.761 99.2969V84.0553C168.761 83.9193 168.693 83.8059 168.58 83.7151" fill="white"/>
<path d="M184.522 99.6144C184.522 99.6144 184.749 99.7732 184.862 99.7732H188.059C188.218 99.7732 188.331 99.7278 188.422 99.6144C188.513 99.501 188.558 99.3876 188.558 99.2515V87.3214H192.323C192.481 87.3214 192.617 87.276 192.708 87.14C192.799 87.0266 192.844 86.8905 192.844 86.7771V84.078C192.844 83.9193 192.776 83.8059 192.663 83.7151C192.572 83.6471 192.436 83.6017 192.323 83.6017H180.599C180.463 83.6017 180.327 83.6471 180.236 83.7378C180.145 83.8285 180.1 83.942 180.1 84.078V86.7771C180.1 86.9585 180.145 87.0946 180.236 87.1853C180.327 87.276 180.463 87.3214 180.599 87.3214H184.34V99.2515C184.34 99.3876 184.386 99.5237 184.499 99.6144" fill="white"/>
<path d="M206.201 93.6494C206.337 93.2865 206.473 92.8782 206.609 92.4473C206.745 92.0163 206.881 91.5854 207.017 91.1545C207.153 90.7235 207.289 90.2926 207.448 89.8616C207.584 89.4307 207.72 89.0225 207.879 88.6596L209.534 93.6494H206.201ZM211.19 98.2536C211.326 98.6165 211.462 98.9794 211.621 99.3649C211.666 99.5237 211.734 99.6144 211.825 99.6825C211.915 99.7505 212.052 99.7732 212.21 99.7732H215.34C215.544 99.7732 215.68 99.7278 215.748 99.6371C215.839 99.5464 215.839 99.433 215.771 99.2742L210.056 84.509L209.784 83.8966L209.58 83.6925C209.58 83.6925 209.376 83.579 209.262 83.579H206.473L206.292 83.6244L206.11 83.7378L205.974 83.8739L205.906 84.01L199.987 99.3423C199.919 99.4783 199.942 99.5917 200.033 99.6598C200.123 99.7278 200.237 99.7732 200.373 99.7732H203.593C203.865 99.7732 204.047 99.6371 204.16 99.3649C204.296 99.002 204.432 98.6391 204.568 98.2536C204.704 97.8907 204.84 97.5278 204.976 97.1422H210.759C210.895 97.5051 211.031 97.8907 211.167 98.2536" fill="white"/>
<path d="M227.494 99.6144C227.494 99.6144 227.721 99.7732 227.835 99.7732H231.032C231.191 99.7732 231.304 99.7278 231.395 99.6144C231.486 99.501 231.531 99.3876 231.531 99.2515V87.3214H235.295C235.454 87.3214 235.59 87.276 235.681 87.14C235.772 87.0266 235.817 86.8905 235.817 86.7771V84.078C235.817 83.9193 235.749 83.8059 235.635 83.7151C235.545 83.6471 235.409 83.6017 235.295 83.6017H223.571C223.435 83.6017 223.299 83.6471 223.209 83.7378C223.118 83.8285 223.072 83.942 223.072 84.078V86.7771C223.072 86.9585 223.118 87.0946 223.209 87.1853C223.299 87.276 223.435 87.3214 223.571 87.3214H227.313V99.2515C227.313 99.3876 227.358 99.5237 227.472 99.6144" fill="white"/>
<path d="M247.7 83.579C247.541 83.579 247.427 83.6244 247.337 83.7151C247.269 83.8059 247.223 83.9193 247.223 84.0553V99.2969C247.223 99.6144 247.382 99.7732 247.7 99.7732H250.897C251.26 99.7732 251.441 99.6144 251.441 99.2969V84.0553C251.441 83.9193 251.373 83.8059 251.26 83.7151C251.146 83.6244 251.01 83.579 250.92 83.579H247.722H247.7Z" fill="white"/>
<path d="M267.451 89.9977C267.655 89.4761 267.95 88.9998 268.313 88.6142C268.676 88.2286 269.107 87.9111 269.605 87.6843C270.104 87.4575 270.649 87.3441 271.261 87.3441C271.873 87.3441 272.417 87.4575 272.916 87.6843C273.415 87.9111 273.846 88.2286 274.232 88.6142C274.594 88.9998 274.889 89.4761 275.093 89.9977C275.297 90.5194 275.388 91.0864 275.388 91.6761C275.388 92.2658 275.297 92.8328 275.093 93.3545C274.889 93.8762 274.594 94.3298 274.232 94.7154C273.869 95.1009 273.438 95.4185 272.916 95.6226C272.417 95.8494 271.85 95.9628 271.261 95.9628C270.671 95.9628 270.104 95.8494 269.605 95.6226C269.107 95.3958 268.676 95.1009 268.313 94.7154C267.95 94.3298 267.655 93.8762 267.451 93.3545C267.247 92.8328 267.156 92.2658 267.156 91.6761C267.156 91.0864 267.247 90.5194 267.451 89.9977ZM265.365 85.7791C264.866 86.2781 264.435 86.8451 264.072 87.4802C263.709 88.0925 263.437 88.773 263.233 89.4761C263.029 90.1792 262.938 90.9276 262.938 91.6988C262.938 92.4699 263.029 93.2184 263.233 93.9215C263.437 94.6246 263.709 95.2824 264.072 95.9174C264.435 96.5298 264.866 97.0968 265.365 97.5958C265.864 98.0948 266.431 98.5257 267.043 98.8886C267.655 99.2515 268.336 99.5237 269.039 99.7278C269.741 99.932 270.49 100.023 271.261 100.023C272.032 100.023 272.758 99.932 273.483 99.7278C274.186 99.5237 274.866 99.2515 275.479 98.8886C276.091 98.5257 276.658 98.0948 277.157 97.5958C277.656 97.0968 278.109 96.5298 278.472 95.9174C278.835 95.3051 279.107 94.6473 279.311 93.9215C279.515 93.2184 279.606 92.4699 279.606 91.6988C279.606 90.9276 279.515 90.2019 279.311 89.4761C279.107 88.773 278.835 88.0925 278.472 87.4802C278.109 86.8678 277.678 86.3007 277.157 85.7791C276.658 85.2574 276.091 84.8265 275.479 84.4863C274.866 84.1234 274.186 83.8512 273.483 83.6471C272.78 83.443 272.032 83.3522 271.261 83.3522C270.49 83.3522 269.741 83.443 269.039 83.6471C268.336 83.8512 267.678 84.1234 267.043 84.4863C266.431 84.8492 265.864 85.2801 265.365 85.7791Z" fill="white"/>
<path d="M291.489 99.7732H294.595C294.777 99.7732 294.913 99.7279 294.981 99.6598C295.049 99.5918 295.094 99.4557 295.094 99.2969V89.9297C296.069 91.5174 297.022 93.105 297.974 94.67C298.927 96.235 299.879 97.8 300.831 99.4103C300.9 99.5237 300.99 99.6145 301.058 99.6825L301.308 99.7732H304.777C304.936 99.7732 305.049 99.7505 305.14 99.6598C305.231 99.5918 305.276 99.4784 305.276 99.3423V84.0554C305.276 83.8966 305.231 83.7832 305.117 83.6925C305.027 83.6018 304.891 83.5564 304.732 83.5564H301.625C301.512 83.5564 301.398 83.6018 301.308 83.6698C301.217 83.7378 301.172 83.8512 301.126 83.9647V92.6968C300.196 91.1998 299.289 89.7483 298.36 88.2967C297.453 86.8451 296.523 85.3936 295.616 83.8966C295.525 83.7832 295.434 83.6925 295.344 83.6244C295.23 83.5791 295.117 83.5564 295.026 83.5564H291.466C291.307 83.5564 291.194 83.6018 291.103 83.6925C291.012 83.7832 290.99 83.8966 290.99 84.0327V99.2742C290.99 99.4103 291.035 99.5237 291.103 99.6145C291.194 99.7052 291.307 99.7505 291.466 99.7505" fill="white"/>
<path d="M322.919 92.4699C323.055 92.039 323.191 91.6081 323.327 91.1771C323.463 90.7462 323.599 90.3153 323.758 89.8843C323.894 89.4534 324.03 89.0451 324.166 88.6822L325.844 93.672H322.488C322.624 93.3091 322.76 92.9009 322.919 92.4699ZM319.88 99.7732C320.152 99.7732 320.334 99.6371 320.424 99.3649C320.56 99.002 320.696 98.6391 320.855 98.2536C320.991 97.8907 321.15 97.5278 321.286 97.1422H327.069C327.205 97.5051 327.341 97.8907 327.477 98.2536C327.613 98.6165 327.749 99.002 327.908 99.3649C327.953 99.5237 328.021 99.6144 328.112 99.6825C328.202 99.7505 328.339 99.7732 328.497 99.7732H331.627C331.831 99.7732 331.967 99.7278 332.035 99.6371C332.126 99.5464 332.126 99.433 332.058 99.2742L326.343 84.509L326.071 83.8966L325.867 83.6925C325.867 83.6925 325.663 83.579 325.549 83.579H322.76L322.579 83.6244L322.397 83.7378L322.238 83.8739L322.17 84.01L316.252 99.3423C316.184 99.4783 316.206 99.5917 316.297 99.6598C316.388 99.7278 316.501 99.7732 316.637 99.7732H319.857H319.88Z" fill="white"/>
<path d="M346.639 83.6925C346.639 83.6925 346.412 83.5564 346.299 83.5564H343.078C342.92 83.5564 342.806 83.6018 342.716 83.6925C342.625 83.7832 342.58 83.8966 342.58 84.0327V99.2742C342.58 99.5918 342.738 99.7505 343.056 99.7505H352.784C352.943 99.7505 353.056 99.6825 353.147 99.5918C353.238 99.5011 353.283 99.3876 353.283 99.2516V96.3938C353.283 96.235 353.238 96.1216 353.147 96.0309C353.056 95.9402 352.943 95.8948 352.807 95.8948H346.82V84.0327C346.82 83.8966 346.752 83.7605 346.661 83.6925" fill="white"/>
</g>
<defs>
<clipPath id="clip0_4302_1982">
<rect width="450" height="100" fill="white"/>
</clipPath>
</defs>
</svg>
